<svg width="28" height="28" viewBox="0 0 28 28" fill="none" xmlns="http://www.w3.org/2000/svg">
<path d="M4.66667 3.5H23.3333C23.6428 3.5 23.9395 3.62292 24.1583 3.84171C24.3771 4.0605 24.5 4.35725 24.5 4.66667V23.3333C24.5 23.6428 24.3771 23.9395 24.1583 24.1583C23.9395 24.3771 23.6428 24.5 23.3333 24.5H4.66667C4.35725 24.5 4.0605 24.3771 3.84171 24.1583C3.62292 23.9395 3.5 23.6428 3.5 23.3333V4.66667C3.5 4.35725 3.62292 4.0605 3.84171 3.84171C4.0605 3.62292 4.35725 3.5 4.66667 3.5ZM5.83333 5.83333V22.1667H22.1667V5.83333H5.83333ZM12.8368 18.6667L7.88667 13.7165L9.53633 12.0668L12.8368 15.3673L19.4355 8.7675L21.0863 10.4172L12.8368 18.6667Z" fill="#008000"/>
</svg>
