<?xml version="1.0" encoding="UTF-8"?>
<svg xmlns="http://www.w3.org/2000/svg" xmlns:xlink="http://www.w3.org/1999/xlink" width="24px" height="24px" viewBox="0 0 24 24" version="1.1">
<g id="surface1">
<path style=" stroke:none;fill-rule:nonzero;fill:rgb(100%,61.568627%,28.627451%);fill-opacity:1;" d="M 18.433594 10.015625 L 6.675781 21.773438 L 4.082031 19.917969 L 16.210938 7.046875 Z M 18.433594 10.015625 "/>
<path style=" stroke:none;fill-rule:nonzero;fill:rgb(100%,80%,45.882353%);fill-opacity:1;" d="M 16.582031 7.417969 L 4.082031 19.917969 L 2.226562 17.324219 L 13.984375 5.5625 Z M 16.582031 7.417969 "/>
<path style=" stroke:none;fill-rule:nonzero;fill:rgb(74.117647%,8.235294%,8.235294%);fill-opacity:1;" d="M 24 4.453125 L 20.660156 7.789062 L 17.695312 5.5625 L 21.773438 2.226562 Z M 24 4.453125 "/>
<path style=" stroke:none;fill-rule:nonzero;fill:rgb(94.901961%,28.235294%,29.411765%);fill-opacity:1;" d="M 21.773438 2.226562 L 18.066406 5.933594 L 16.210938 3.339844 L 19.546875 0 Z M 21.773438 2.226562 "/>
<path style=" stroke:none;fill-rule:nonzero;fill:rgb(3.137255%,16.078431%,27.843137%);fill-opacity:1;" d="M 20.660156 7.789062 L 18.433594 10.015625 L 13.984375 5.5625 L 16.210938 3.339844 Z M 20.660156 7.789062 "/>
<path style=" stroke:none;fill-rule:nonzero;fill:rgb(3.137255%,16.078431%,27.843137%);fill-opacity:1;" d="M 3.339844 22.886719 L 0 24 L 1.113281 20.660156 L 2.96875 21.03125 Z M 3.339844 22.886719 "/>
<path style=" stroke:none;fill-rule:nonzero;fill:rgb(94.901961%,92.156863%,85.098039%);fill-opacity:1;" d="M 2.226562 17.324219 L 1.113281 20.660156 L 3.339844 22.886719 L 6.675781 21.773438 Z M 2.226562 17.324219 "/>
</g>
</svg>
